<?xml version="1.0" encoding="utf-8"?>
<!-- Generator: Adobe Illustrator 19.0.0, SVG Export Plug-In . SVG Version: 6.00 Build 0)  -->
<svg version="1.1" id="Capa_1" xmlns="http://www.w3.org/2000/svg" xmlns:xlink="http://www.w3.org/1999/xlink" x="0px" y="0px"
	 width="162px" height="154px" viewBox="0 0 162 154" style="enable-background:new 0 0 162 154;" xml:space="preserve">
<g id="XMLID_114_">
	<g id="XMLID_35_">
		<path id="XMLID_36_" d="M30.89,91.14c0,1.97,0.06,3.58,0.18,4.84h-1.36c-0.32-3.03-0.71-5.29-1.18-6.76
			c-0.47-1.48-1.3-2.56-2.48-3.25c-1.18-0.69-2.99-1.03-5.43-1.03H16.9c-1.42,0-2.45,0.11-3.1,0.32c-0.65,0.22-1.09,0.66-1.33,1.33
			c-0.24,0.67-0.35,1.75-0.35,3.25v14.53h4.31c1.38,0,2.44-0.32,3.19-0.97c0.75-0.65,1.25-1.42,1.51-2.3c0.26-0.89,0.46-2,0.62-3.34
			l0.18-1.18h1.36c-0.12,1.65-0.18,3.5-0.18,5.55v2.83c0,2.01,0.12,4.8,0.35,8.39H22.1c-0.04-0.28-0.16-1.23-0.35-2.86
			c-0.2-1.63-0.74-2.86-1.62-3.69c-0.89-0.83-2.12-1.24-3.69-1.24h-4.31v13.58c0,1.5,0.16,2.58,0.47,3.25
			c0.31,0.67,0.87,1.12,1.65,1.36c0.79,0.24,2.07,0.39,3.84,0.47v1.18c-2.05-0.12-4.94-0.18-8.68-0.18c-3.39,0-5.91,0.06-7.56,0.18
			v-1.18c1.42-0.08,2.45-0.24,3.1-0.47s1.09-0.69,1.33-1.36c0.24-0.67,0.35-1.75,0.35-3.25V89.84c0-1.5-0.12-2.58-0.35-3.25
			c-0.24-0.67-0.68-1.12-1.33-1.36c-0.65-0.24-1.68-0.39-3.1-0.47v-1.18c3.86,0.12,9.57,0.18,17.13,0.18c5.79,0,9.9-0.06,12.34-0.18
			C31.03,86.38,30.89,88.89,30.89,91.14z"/>
		<path id="XMLID_38_" d="M36.24,123.94c-1.2-1.24-1.8-2.96-1.8-5.17c0-1.77,0.48-3.23,1.45-4.37c0.96-1.14,2.11-2.05,3.43-2.72
			c1.32-0.67,3.06-1.38,5.23-2.13c2.2-0.75,3.84-1.44,4.9-2.07c1.06-0.63,1.59-1.48,1.59-2.54v-3.66c0-2.28-0.48-3.85-1.45-4.69
			c-0.97-0.85-2.31-1.27-4.04-1.27c-2.76,0-4.71,0.71-5.85,2.13c0.79,0.2,1.45,0.61,1.98,1.24c0.53,0.63,0.8,1.42,0.8,2.36
			c0,0.98-0.32,1.76-0.94,2.33c-0.63,0.57-1.44,0.86-2.42,0.86c-1.1,0-1.93-0.34-2.48-1.03c-0.55-0.69-0.83-1.53-0.83-2.51
			c0-0.94,0.23-1.73,0.68-2.36c0.45-0.63,1.13-1.26,2.04-1.89c0.95-0.67,2.15-1.22,3.6-1.65c1.46-0.43,3.05-0.65,4.78-0.65
			c3.07,0,5.39,0.73,6.97,2.19c0.98,0.91,1.64,2,1.98,3.28c0.33,1.28,0.5,2.96,0.5,5.05v16.42c0,0.98,0.14,1.69,0.41,2.13
			c0.28,0.43,0.75,0.65,1.42,0.65c0.47,0,0.92-0.11,1.33-0.33c0.41-0.22,0.86-0.52,1.33-0.91l0.65,1c-1.02,0.79-1.9,1.35-2.63,1.68
			c-0.73,0.33-1.64,0.5-2.75,0.5c-1.89,0-3.21-0.47-3.96-1.42c-0.75-0.94-1.12-2.22-1.12-3.84c-1.18,1.97-2.54,3.34-4.07,4.1
			c-1.54,0.77-3.27,1.15-5.2,1.15C39.28,125.8,37.44,125.18,36.24,123.94z M51.03,118.95v-11.57c-0.35,0.55-0.85,1-1.48,1.36
			c-0.63,0.35-1.59,0.83-2.89,1.42c-1.5,0.63-2.71,1.23-3.63,1.8c-0.93,0.57-1.72,1.35-2.39,2.33c-0.67,0.98-1,2.24-1,3.78
			c0,1.77,0.43,3.11,1.3,4.02c0.87,0.91,2.01,1.36,3.42,1.36C46.96,123.44,49.18,121.94,51.03,118.95z"/>
		<path id="XMLID_41_" d="M73.06,119.9c0,1.61,0.33,2.73,1,3.34c0.67,0.61,1.83,0.91,3.48,0.91v1.24c-3.62-0.16-6-0.24-7.15-0.24
			c-1.14,0-3.52,0.08-7.15,0.24v-1.24c1.65,0,2.81-0.3,3.48-0.91c0.67-0.61,1-1.72,1-3.34v-18.48c0-1.81-0.33-3.13-1-3.96
			c-0.67-0.83-1.83-1.24-3.48-1.24v-1.24c1.26,0.12,2.48,0.18,3.66,0.18c2.48,0,4.53-0.28,6.14-0.83V119.9z M72.64,81.34
			c0.75,0.75,1.12,1.63,1.12,2.66c0,1.02-0.37,1.91-1.12,2.66c-0.75,0.75-1.63,1.12-2.66,1.12c-1.02,0-1.91-0.37-2.66-1.12
			c-0.75-0.75-1.12-1.63-1.12-2.66c0-1.02,0.37-1.91,1.12-2.66c0.75-0.75,1.63-1.12,2.66-1.12C71.01,80.21,71.89,80.59,72.64,81.34z
			"/>
		<path id="XMLID_44_" d="M107.54,94.98v1.18c-0.79,0.08-1.49,0.43-2.1,1.06c-0.61,0.63-1.19,1.65-1.74,3.07l-9.68,25.39h-1
			L82.15,99.52c-0.59-1.34-1.16-2.22-1.71-2.66c-0.55-0.43-1.12-0.65-1.71-0.65v-1.24c2.05,0.16,3.78,0.24,5.2,0.24
			c3.03,0,5.59-0.08,7.68-0.24v1.24c-1.46,0-2.52,0.11-3.19,0.32c-0.67,0.22-1,0.78-1,1.68c0,0.55,0.22,1.42,0.65,2.6l7.26,17.95
			l6.5-17.07c0.43-1.18,0.65-2.11,0.65-2.78c0-0.91-0.34-1.57-1.03-1.98c-0.69-0.41-1.8-0.68-3.34-0.8v-1.18
			c2.05,0.12,3.7,0.18,4.96,0.18C104.79,95.15,106.28,95.09,107.54,94.98z"/>
		<path id="XMLID_46_" d="M131.67,95.51c1,0.91,1.51,2.01,1.51,3.31c0,1.02-0.31,1.9-0.92,2.63c-0.61,0.73-1.43,1.09-2.45,1.09
			c-0.87,0-1.6-0.28-2.21-0.83c-0.61-0.55-0.92-1.3-0.92-2.24c0-1.3,0.67-2.36,2.01-3.19c-0.28-0.39-0.69-0.59-1.24-0.59
			c-1.54,0-2.93,0.6-4.19,1.8c-1.26,1.2-2.24,2.67-2.95,4.4c-0.71,1.73-1.06,3.37-1.06,4.9v12.52c0,1.81,0.52,3.07,1.57,3.78
			c1.04,0.71,2.61,1.06,4.69,1.06v1.24l-1.42-0.06c-4.02-0.12-6.58-0.18-7.68-0.18c-1.02,0-3.35,0.08-6.97,0.24v-1.24
			c1.65,0,2.81-0.3,3.48-0.91c0.67-0.61,1-1.72,1-3.34v-18.48c0-1.81-0.33-3.13-1-3.96c-0.67-0.83-1.83-1.24-3.48-1.24v-1.24
			c1.26,0.12,2.48,0.18,3.66,0.18c2.48,0,4.53-0.28,6.14-0.83v7.38c0.71-1.97,1.84-3.72,3.4-5.26c1.55-1.54,3.28-2.3,5.17-2.3
			C129.37,94.15,130.66,94.6,131.67,95.51z"/>
		<path id="XMLID_48_" d="M160.16,118.3c-0.71,2.17-2.04,4.03-3.99,5.58c-1.95,1.55-4.3,2.33-7.06,2.33c-2.8,0-5.22-0.64-7.26-1.92
			c-2.05-1.28-3.61-3.07-4.69-5.37c-1.08-2.3-1.62-4.97-1.62-8c0-3.42,0.55-6.4,1.65-8.92c1.1-2.52,2.66-4.46,4.67-5.82
			c2.01-1.36,4.35-2.04,7.03-2.04c3.54,0,6.27,1.07,8.18,3.22c1.91,2.15,2.86,5.4,2.86,9.77h-18.48c-0.12,1.1-0.18,2.36-0.18,3.78
			c0,2.6,0.42,4.86,1.27,6.79c0.85,1.93,1.97,3.42,3.37,4.46c1.4,1.04,2.86,1.56,4.4,1.56c1.89,0,3.56-0.45,5.02-1.36
			c1.46-0.91,2.68-2.42,3.66-4.55L160.16,118.3z M143.86,97.99c-1.34,1.81-2.17,4.49-2.48,8.03h12.87c0.08-3.07-0.36-5.63-1.33-7.68
			c-0.97-2.05-2.39-3.07-4.28-3.07C146.79,95.27,145.2,96.18,143.86,97.99z"/>
	</g>
	<g id="XMLID_2_">
		<path id="XMLID_4_" d="M17.12,152.12c0.73-0.02,1.26-0.29,1.61-0.81s0.52-1.4,0.52-2.63v-8.57c0-0.39-0.03-0.68-0.09-0.86
			c-0.06-0.18-0.18-0.3-0.35-0.36c-0.17-0.06-0.44-0.1-0.82-0.12v-0.31c0.44,0.03,1.09,0.05,1.96,0.05c0.85,0,1.52-0.02,2.01-0.05
			v0.31c-0.37,0.02-0.65,0.06-0.82,0.12c-0.17,0.06-0.29,0.18-0.35,0.36c-0.06,0.18-0.09,0.46-0.09,0.86v5.7
			c0,0.88-0.02,1.67-0.05,2.35c-0.03,0.68-0.1,1.25-0.22,1.72c-0.19,0.76-0.57,1.37-1.15,1.84c-0.58,0.47-1.3,0.7-2.17,0.7V152.12z"
			/>
		<path id="XMLID_6_" d="M32.95,147.61c-0.19,0.57-0.54,1.06-1.05,1.47c-0.51,0.41-1.14,0.62-1.86,0.62c-0.74,0-1.38-0.17-1.92-0.51
			c-0.54-0.34-0.95-0.81-1.24-1.42c-0.29-0.61-0.43-1.31-0.43-2.11c0-0.9,0.15-1.69,0.44-2.35s0.7-1.18,1.23-1.53
			c0.53-0.36,1.15-0.54,1.85-0.54c0.94,0,1.65,0.28,2.16,0.85c0.5,0.57,0.76,1.43,0.76,2.58h-4.88c-0.03,0.29-0.05,0.62-0.05,1
			c0,0.69,0.11,1.28,0.34,1.79c0.22,0.51,0.52,0.9,0.89,1.18c0.37,0.28,0.76,0.41,1.16,0.41c0.5,0,0.94-0.12,1.32-0.36
			c0.38-0.24,0.71-0.64,0.97-1.2L32.95,147.61z M28.65,142.25c-0.35,0.48-0.57,1.18-0.65,2.12h3.4c0.02-0.81-0.1-1.49-0.35-2.03
			c-0.25-0.54-0.63-0.81-1.13-0.81C29.43,141.54,29.01,141.78,28.65,142.25z"/>
		<path id="XMLID_12_" d="M49.02,141.46v0.31c-0.22,0.03-0.41,0.13-0.58,0.29c-0.17,0.16-0.31,0.43-0.44,0.8l-2.26,6.7h-0.27
			l-2.46-6.26l-2.23,6.26h-0.27l-2.56-6.9c-0.15-0.36-0.29-0.6-0.44-0.71c-0.15-0.11-0.3-0.16-0.46-0.16v-0.33
			c0.41,0.06,0.86,0.09,1.37,0.09c0.52,0,1.19-0.03,2.03-0.09v0.33c-0.38,0-0.66,0.03-0.83,0.09c-0.17,0.06-0.26,0.22-0.26,0.48
			c0,0.19,0.05,0.43,0.16,0.73l1.56,4.49l2.24-6.19h0.36l2.38,6.3l1.46-4.46c0.09-0.28,0.14-0.51,0.14-0.7
			c0-0.25-0.09-0.43-0.26-0.55c-0.18-0.11-0.47-0.19-0.89-0.22v-0.31c0.55,0.03,0.99,0.05,1.31,0.05
			C48.29,141.5,48.69,141.49,49.02,141.46z"/>
		<path id="XMLID_14_" d="M59.65,147.61c-0.19,0.57-0.54,1.06-1.05,1.47c-0.51,0.41-1.14,0.62-1.86,0.62
			c-0.74,0-1.38-0.17-1.92-0.51c-0.54-0.34-0.95-0.81-1.24-1.42c-0.29-0.61-0.43-1.31-0.43-2.11c0-0.9,0.15-1.69,0.44-2.35
			c0.29-0.66,0.7-1.18,1.23-1.53c0.53-0.36,1.15-0.54,1.85-0.54c0.94,0,1.65,0.28,2.16,0.85s0.76,1.43,0.76,2.58h-4.88
			c-0.03,0.29-0.05,0.62-0.05,1c0,0.69,0.11,1.28,0.34,1.79c0.22,0.51,0.52,0.9,0.89,1.18c0.37,0.28,0.76,0.41,1.16,0.41
			c0.5,0,0.94-0.12,1.32-0.36c0.38-0.24,0.71-0.64,0.97-1.2L59.65,147.61z M55.35,142.25c-0.35,0.48-0.57,1.18-0.65,2.12h3.4
			c0.02-0.81-0.1-1.49-0.35-2.03c-0.25-0.54-0.63-0.81-1.13-0.81C56.12,141.54,55.7,141.78,55.35,142.25z"/>
		<path id="XMLID_17_" d="M66.75,148.03c0,0.43,0.09,0.72,0.27,0.88c0.18,0.16,0.48,0.24,0.92,0.24v0.33
			c-0.96-0.04-1.58-0.06-1.89-0.06c-0.3,0-0.93,0.02-1.89,0.06v-0.33c0.44,0,0.74-0.08,0.92-0.24c0.18-0.16,0.26-0.45,0.26-0.88
			v-8.9c0-0.48-0.09-0.83-0.26-1.04c-0.18-0.22-0.48-0.33-0.92-0.33v-0.33c0.32,0.03,0.64,0.05,0.97,0.05
			c0.65,0,1.19-0.07,1.62-0.22V148.03z"/>
		<path id="XMLID_19_" d="M88.21,139.83c0.91,0.92,1.37,2.26,1.37,4.01c0,1.13-0.22,2.12-0.67,2.98c-0.45,0.85-1.09,1.51-1.94,1.97
			c-0.85,0.46-1.86,0.69-3.03,0.69l-0.9-0.02c-0.58-0.02-1.01-0.03-1.28-0.03c-0.85,0-1.5,0.02-1.93,0.05v-0.31
			c0.37-0.02,0.65-0.06,0.82-0.12c0.17-0.06,0.29-0.18,0.35-0.36c0.06-0.18,0.09-0.46,0.09-0.86v-7.73c0-0.39-0.03-0.68-0.09-0.86
			c-0.06-0.18-0.18-0.3-0.35-0.36c-0.17-0.06-0.44-0.1-0.82-0.12v-0.31c0.36,0.03,0.87,0.05,1.51,0.05l1.32-0.02
			c0.71-0.02,1.18-0.03,1.42-0.03C85.92,138.45,87.3,138.91,88.21,139.83z M82.97,138.84c-0.16,0.07-0.27,0.2-0.34,0.39
			c-0.06,0.19-0.09,0.47-0.09,0.84v7.79c0,0.37,0.03,0.65,0.09,0.84c0.06,0.19,0.17,0.32,0.34,0.39c0.16,0.07,0.41,0.11,0.74,0.11
			c1.1,0,1.97-0.2,2.6-0.6c0.63-0.4,1.08-0.98,1.33-1.75c0.25-0.77,0.38-1.75,0.38-2.95c0-1.2-0.14-2.17-0.42-2.92
			c-0.28-0.75-0.73-1.32-1.36-1.69c-0.63-0.37-1.48-0.56-2.55-0.56C83.37,138.73,83.13,138.77,82.97,138.84z"/>
		<path id="XMLID_22_" d="M101.16,147.61c-0.19,0.57-0.54,1.06-1.05,1.47c-0.51,0.41-1.14,0.62-1.86,0.62
			c-0.74,0-1.38-0.17-1.92-0.51c-0.54-0.34-0.95-0.81-1.24-1.42c-0.29-0.61-0.43-1.31-0.43-2.11c0-0.9,0.15-1.69,0.44-2.35
			s0.7-1.18,1.23-1.53c0.53-0.36,1.15-0.54,1.85-0.54c0.94,0,1.65,0.28,2.16,0.85c0.5,0.57,0.76,1.43,0.76,2.58h-4.88
			c-0.03,0.29-0.05,0.62-0.05,1c0,0.69,0.11,1.28,0.34,1.79c0.22,0.51,0.52,0.9,0.89,1.18c0.37,0.28,0.76,0.41,1.16,0.41
			c0.5,0,0.94-0.12,1.32-0.36c0.38-0.24,0.71-0.64,0.97-1.2L101.16,147.61z M96.86,142.25c-0.35,0.48-0.57,1.18-0.65,2.12h3.4
			c0.02-0.81-0.1-1.49-0.35-2.03c-0.25-0.54-0.63-0.81-1.13-0.81C97.64,141.54,97.21,141.78,96.86,142.25z"/>
		<path id="XMLID_25_" d="M109.58,141.41c0.29,0.11,0.52,0.25,0.7,0.4c0.11,0.08,0.21,0.12,0.28,0.12c0.19,0,0.3-0.23,0.34-0.69
			h0.36c-0.04,0.51-0.06,1.39-0.06,2.65h-0.36c-0.11-0.69-0.34-1.25-0.66-1.7c-0.33-0.45-0.81-0.67-1.46-0.67
			c-0.37,0-0.68,0.11-0.92,0.32c-0.24,0.21-0.36,0.51-0.36,0.88c0,0.36,0.12,0.67,0.37,0.91c0.25,0.24,0.65,0.54,1.2,0.88
			c0.09,0.05,0.23,0.14,0.42,0.26c0.48,0.31,0.86,0.59,1.15,0.83c0.29,0.24,0.53,0.51,0.71,0.83c0.18,0.31,0.27,0.67,0.27,1.07
			c0,0.69-0.26,1.22-0.77,1.61c-0.51,0.38-1.15,0.58-1.89,0.58c-0.47,0-0.88-0.07-1.23-0.22c-0.23-0.11-0.44-0.25-0.64-0.42
			c-0.04-0.04-0.09-0.06-0.14-0.06c-0.07,0-0.14,0.05-0.19,0.16c-0.06,0.1-0.1,0.25-0.13,0.44h-0.36c0.04-0.59,0.06-1.63,0.06-3.12
			h0.36c0.11,0.98,0.32,1.71,0.62,2.19c0.3,0.48,0.82,0.72,1.54,0.72c0.36,0,0.69-0.12,0.97-0.36c0.28-0.24,0.42-0.61,0.42-1.12
			c0-0.41-0.14-0.75-0.41-1.03c-0.28-0.28-0.72-0.62-1.35-1.01c-0.51-0.32-0.9-0.59-1.18-0.79c-0.28-0.21-0.51-0.46-0.69-0.76
			c-0.19-0.3-0.28-0.65-0.28-1.06c0-0.65,0.22-1.15,0.65-1.5c0.44-0.34,0.99-0.51,1.65-0.51
			C108.95,141.24,109.29,141.3,109.58,141.41z"/>
		<path id="XMLID_27_" d="M118.85,148.03c0,0.43,0.09,0.72,0.26,0.88c0.18,0.16,0.48,0.24,0.92,0.24v0.33
			c-0.96-0.04-1.58-0.06-1.89-0.06c-0.3,0-0.93,0.02-1.89,0.06v-0.33c0.44,0,0.74-0.08,0.92-0.24c0.18-0.16,0.27-0.45,0.27-0.88
			v-4.88c0-0.48-0.09-0.83-0.27-1.04c-0.18-0.22-0.48-0.33-0.92-0.33v-0.33c0.33,0.03,0.65,0.05,0.97,0.05
			c0.65,0,1.19-0.07,1.62-0.22V148.03z M118.74,137.86c0.2,0.2,0.3,0.43,0.3,0.7c0,0.27-0.1,0.5-0.3,0.7c-0.2,0.2-0.43,0.3-0.7,0.3
			c-0.27,0-0.5-0.1-0.7-0.3c-0.2-0.2-0.3-0.43-0.3-0.7c0-0.27,0.1-0.5,0.3-0.7c0.2-0.2,0.43-0.3,0.7-0.3
			C118.31,137.56,118.54,137.66,118.74,137.86z"/>
		<path id="XMLID_30_" d="M130.75,142.67c-0.13-0.12-0.2-0.31-0.2-0.54c0-0.21,0.05-0.45,0.16-0.72c-0.27,0.11-0.48,0.24-0.64,0.38
			c-0.16,0.14-0.3,0.31-0.42,0.52c0.24,0.36,0.36,0.83,0.36,1.39c0,0.82-0.25,1.44-0.75,1.85c-0.5,0.41-1.16,0.62-1.98,0.62h-0.02
			c-0.34,0.2-0.6,0.38-0.78,0.55c-0.18,0.17-0.26,0.35-0.26,0.56c0,0.33,0.25,0.5,0.75,0.5h1.95c0.71,0,1.29,0.15,1.75,0.46
			c0.46,0.31,0.69,0.77,0.69,1.38c0,0.5-0.16,0.96-0.48,1.39c-0.32,0.43-0.79,0.77-1.42,1.03c-0.62,0.26-1.38,0.39-2.26,0.39
			c-0.9,0-1.66-0.14-2.27-0.41c-0.61-0.28-0.91-0.68-0.91-1.22c0-0.35,0.14-0.66,0.43-0.92c0.29-0.26,0.68-0.46,1.19-0.61l0.09,0.25
			c-0.23,0.07-0.41,0.22-0.55,0.44c-0.14,0.22-0.2,0.46-0.2,0.73c0,0.48,0.22,0.84,0.65,1.1c0.43,0.25,1.01,0.38,1.74,0.38
			c0.8,0,1.49-0.15,2.06-0.46c0.57-0.31,0.86-0.78,0.86-1.43c0-0.37-0.13-0.67-0.4-0.87c-0.27-0.21-0.74-0.31-1.41-0.31h-1.15
			c-0.61,0-1.1-0.08-1.47-0.23c-0.37-0.16-0.55-0.47-0.55-0.93c0-0.32,0.12-0.63,0.35-0.92c0.23-0.29,0.62-0.58,1.16-0.86
			c-0.69-0.07-1.23-0.31-1.64-0.72c-0.41-0.41-0.62-0.98-0.62-1.71c0-0.82,0.25-1.44,0.75-1.85c0.5-0.41,1.16-0.62,1.98-0.62
			c0.98,0,1.7,0.27,2.17,0.81c0.2-0.28,0.45-0.51,0.75-0.69c0.3-0.18,0.6-0.27,0.9-0.27c0.27,0,0.49,0.08,0.65,0.23
			c0.17,0.16,0.25,0.38,0.25,0.67c0,0.29-0.08,0.51-0.24,0.66c-0.16,0.14-0.34,0.22-0.54,0.22
			C131.04,142.86,130.88,142.8,130.75,142.67z M128.22,145.39c0.21-0.33,0.32-0.89,0.32-1.69c0-0.8-0.11-1.36-0.32-1.69
			c-0.21-0.33-0.53-0.49-0.94-0.49c-0.42,0-0.73,0.16-0.94,0.49c-0.21,0.33-0.32,0.89-0.32,1.69c0,0.8,0.11,1.36,0.32,1.69
			c0.21,0.33,0.53,0.49,0.94,0.49C127.7,145.88,128.01,145.72,128.22,145.39z"/>
		<path id="XMLID_33_" d="M142.96,141.83c0.2,0.21,0.34,0.47,0.42,0.78s0.12,0.73,0.12,1.26v4.16c0,0.43,0.09,0.72,0.27,0.88
			c0.18,0.16,0.48,0.24,0.92,0.24v0.33c-0.96-0.04-1.58-0.06-1.87-0.06c-0.29,0-0.87,0.02-1.75,0.06v-0.33
			c0.38,0,0.65-0.08,0.8-0.24c0.15-0.16,0.23-0.45,0.23-0.88v-4.5c0-0.58-0.08-1.03-0.25-1.33c-0.17-0.31-0.5-0.46-1.01-0.46
			c-0.43,0-0.81,0.12-1.14,0.37c-0.33,0.25-0.59,0.59-0.77,1.02c-0.18,0.43-0.27,0.91-0.27,1.44v3.46c0,0.43,0.08,0.72,0.23,0.88
			c0.15,0.16,0.42,0.24,0.8,0.24v0.33c-0.87-0.04-1.45-0.06-1.75-0.06c-0.29,0-0.91,0.02-1.87,0.06v-0.33
			c0.44,0,0.74-0.08,0.92-0.24c0.18-0.16,0.27-0.45,0.27-0.88v-4.88c0-0.48-0.09-0.83-0.27-1.04c-0.18-0.22-0.48-0.33-0.92-0.33
			v-0.33c0.33,0.03,0.65,0.05,0.97,0.05c0.65,0,1.19-0.07,1.62-0.22v1.84c0.26-0.66,0.62-1.15,1.08-1.44
			c0.46-0.3,0.98-0.44,1.57-0.44C142.03,141.24,142.58,141.44,142.96,141.83z"/>
	</g>
	<path id="XMLID_11_" d="M106.45,1.59C103.47,1.73,97.45,1.8,90.4,1.8c-3.03,0-15.18,0.06-19.31,0.27c-4.13,0.2-8.42,1.84-10.98,4.4
		c-2.99,3.01-4.49,7.38-4.49,13.13c0,3.7,0.73,6.95,2.19,9.74c1.46,2.79,3.58,4.94,6.35,6.45c2.77,1.51,6.07,2.27,9.91,2.27
		l2.84-0.05v11.15c0,5.71-0.8,9.77-2.41,12.17c-0.86,1.28-1.97,2.22-3.33,2.84c0.43-0.7,0.67-1.48,0.67-2.34
		c0-1.25-0.46-2.33-1.37-3.24c-0.91-0.91-1.99-1.37-3.24-1.37c-1.25,0-2.33,0.46-3.24,1.37c-0.91,0.91-1.37,1.99-1.37,3.24
		c0,1.25,0.46,2.33,1.37,3.24c0.86,0.86,1.89,1.31,3.05,1.35c0,0,0.26,0.01,0.29,0.01c3.9-0.05,7.15-1.12,9.75-3.23
		c2.66-2.16,4.43-4.99,5.29-8.5c0.45-1.82,0.75-4.02,0.92-6.55h0.05c-0.02-0.06-0.03-0.13-0.04-0.19c0.03-0.4,0.06-0.8,0.08-1.22
		c0.14-3.14,0.22-6.76,0.22-10.84v-7.53h4.69c1.92,0,3.42,0.5,4.5,1.51c1.08,1.01,1.74,2.51,1.98,4.5c0.24,1.99,0.38,3.16,0.43,3.49
		h1.66c-0.29-4.37-0.43-7.78-0.43-10.22V24.2c0-2.5,0.07-4.75,0.22-6.77H95l-0.22,1.44c-0.19,1.63-0.44,2.99-0.76,4.07
		c-0.31,1.08-0.92,2.02-1.84,2.81c-0.91,0.79-2.21,1.19-3.89,1.19h-4.69V9.55c0-1.82,0.14-3.14,0.43-3.96
		c0.29-0.82,0.84-1.34,1.62-1.66c1.32-0.54,6.75-0.69,6.75-0.69c4.28,0,6.18,0.42,7.62,1.26c1.44,0.84,2.45,2.16,3.02,3.96
		c0.58,1.8,1.06,4.55,1.44,8.24h1.66c-0.14-1.54-0.22-3.5-0.22-5.9C105.94,8.07,106.11,5,106.45,1.59z M76.92,36.9
		c-0.51,0.15-1.2,0.24-2.08,0.24c-3.6,0-6.44-0.65-8.51-1.96c-2.07-1.31-3.53-3.22-4.36-5.73c-0.83-2.51-1.25-5.73-1.25-9.63
		c0-3.91,0.46-7.09,1.38-9.56c0.92-2.46,2.4-4.31,4.46-5.53c1.24-0.74,3.02-1.2,4.53-1.36s2.99,0.29,3.78,0.58s1.33,0.84,1.62,1.66
		c0.29,0.82,0.43,2.14,0.43,3.96V36.9z"/>
</g>
</svg>
